<svg xmlns="http://www.w3.org/2000/svg" viewBox="0 0 1200 700" fill="none">
  <rect width="1200" height="700" fill="#0a0a0b" rx="12"/>
  <rect width="1200" height="44" fill="#1c1c1e" rx="12"/>
  <rect y="32" width="1200" height="12" fill="#1c1c1e"/>
  <circle cx="20" cy="22" r="6" fill="#ff5f57"/>
  <circle cx="40" cy="22" r="6" fill="#febc2e"/>
  <circle cx="60" cy="22" r="6" fill="#28c840"/>
  <rect x="200" y="10" width="400" height="24" rx="12" fill="#2a2a2e"/>
  <text x="400" y="27" font-family="system-ui,sans-serif" font-size="11" fill="#888" text-anchor="middle">localhost:3000</text>

  <!-- Sidebar -->
  <rect x="0" y="44" width="220" height="656" fill="#111113"/>
  <rect x="16" y="60" width="188" height="40" rx="8" fill="#1a1a1e"/>
  <rect x="28" y="68" width="24" height="24" rx="6" fill="#8b5cf620"/>
  <text x="40" y="85" font-family="system-ui,sans-serif" font-size="12" fill="#8b5cf6" text-anchor="middle" font-weight="bold">R</text>
  <text x="60" y="82" font-family="system-ui,sans-serif" font-size="12" fill="white" font-weight="600">RBAC Visualizer</text>
  <text x="60" y="95" font-family="system-ui,sans-serif" font-size="9" fill="#52525b">Role-based access control</text>

  <rect x="16" y="116" width="188" height="32" rx="6" fill="#8b5cf615"/>
  <text x="44" y="136" font-family="system-ui,sans-serif" font-size="12" fill="#8b5cf6">Permission Matrix</text>
  <text x="44" y="164" font-family="system-ui,sans-serif" font-size="12" fill="#71717a">Role Hierarchy</text>
  <text x="44" y="188" font-family="system-ui,sans-serif" font-size="12" fill="#71717a">Policies</text>

  <text x="28" y="224" font-family="system-ui,sans-serif" font-size="10" fill="#52525b" font-weight="600">ROLES</text>
  <text x="44" y="246" font-family="system-ui,sans-serif" font-size="12" fill="#71717a">All Roles</text>
  <circle cx="36" cy="264" r="4" fill="#6b7280"/>
  <text x="48" y="268" font-family="system-ui,sans-serif" font-size="12" fill="#d4d4d8">Viewer</text>
  <circle cx="36" cy="286" r="4" fill="#3b82f6"/>
  <text x="48" y="290" font-family="system-ui,sans-serif" font-size="12" fill="#d4d4d8">Editor</text>
  <circle cx="36" cy="308" r="4" fill="#8b5cf6"/>
  <text x="48" y="312" font-family="system-ui,sans-serif" font-size="12" fill="#d4d4d8">Publisher</text>
  <circle cx="36" cy="330" r="4" fill="#f59e0b"/>
  <text x="48" y="334" font-family="system-ui,sans-serif" font-size="12" fill="#d4d4d8">Admin</text>
  <circle cx="36" cy="352" r="4" fill="#ef4444"/>
  <text x="48" y="356" font-family="system-ui,sans-serif" font-size="12" fill="#d4d4d8">Super Admin</text>
  <rect x="140" y="344" width="50" height="16" rx="3" fill="#27272a"/>
  <text x="165" y="356" font-family="system-ui,sans-serif" font-size="8" fill="#52525b" text-anchor="middle">SYSTEM</text>

  <!-- Header -->
  <rect x="220" y="44" width="980" height="40" rx="0" fill="#111113" stroke="#27272a" stroke-width="0 0 1 0"/>
  <text x="240" y="69" font-family="system-ui,sans-serif" font-size="13" fill="white" font-weight="600">Permission Matrix</text>
  <text x="930" y="69" font-family="system-ui,sans-serif" font-size="11" fill="#52525b">5 roles · 16 permissions · 2 policies</text>

  <!-- Matrix -->
  <!-- Column headers -->
  <rect x="240" y="96" width="940" height="50" rx="0" fill="#111113"/>
  <text x="370" y="116" font-family="system-ui,sans-serif" font-size="10" fill="#52525b" text-anchor="center">Permission</text>

  <circle cx="530" cy="110" r="5" fill="#6b7280"/>
  <text x="530" y="130" font-family="system-ui,sans-serif" font-size="10" fill="#d4d4d8" text-anchor="middle">Viewer</text>
  <text x="530" y="142" font-family="system-ui,sans-serif" font-size="8" fill="#52525b" text-anchor="middle">2 direct</text>

  <circle cx="650" cy="110" r="5" fill="#3b82f6"/>
  <text x="650" y="130" font-family="system-ui,sans-serif" font-size="10" fill="#d4d4d8" text-anchor="middle">Editor</text>
  <text x="650" y="142" font-family="system-ui,sans-serif" font-size="8" fill="#52525b" text-anchor="middle">2 direct</text>

  <circle cx="770" cy="110" r="5" fill="#8b5cf6"/>
  <text x="770" y="130" font-family="system-ui,sans-serif" font-size="10" fill="#d4d4d8" text-anchor="middle">Publisher</text>
  <text x="770" y="142" font-family="system-ui,sans-serif" font-size="8" fill="#52525b" text-anchor="middle">2 direct</text>

  <circle cx="890" cy="110" r="5" fill="#f59e0b"/>
  <text x="890" y="130" font-family="system-ui,sans-serif" font-size="10" fill="#d4d4d8" text-anchor="middle">Admin</text>
  <text x="890" y="142" font-family="system-ui,sans-serif" font-size="8" fill="#52525b" text-anchor="middle">7 direct</text>

  <circle cx="1010" cy="110" r="5" fill="#ef4444"/>
  <text x="1010" y="130" font-family="system-ui,sans-serif" font-size="10" fill="#d4d4d8" text-anchor="middle">Super Admin</text>
  <text x="1010" y="142" font-family="system-ui,sans-serif" font-size="8" fill="#52525b" text-anchor="middle">3 direct</text>

  <!-- Resource: USERS -->
  <text x="260" y="170" font-family="system-ui,sans-serif" font-size="9" fill="#52525b" font-weight="600">USERS</text>

  <!-- users.read -->
  <text x="280" y="196" font-family="system-ui,sans-serif" font-size="11" fill="#d4d4d8">read</text>
  <text x="280" y="208" font-family="system-ui,sans-serif" font-size="8" fill="#52525b">View user profiles</text>
  <rect x="518" y="188" width="24" height="24" rx="5" fill="#6b728015"/>
  <text x="530" y="205" font-family="system-ui,sans-serif" font-size="14" fill="#6b7280" text-anchor="middle">✓</text>
  <rect x="638" y="188" width="24" height="24" rx="5" fill="#27272a50"/>
  <text x="650" y="204" font-family="system-ui,sans-serif" font-size="10" fill="#52525b" text-anchor="middle">—</text>
  <rect x="758" y="188" width="24" height="24" rx="5" fill="#27272a50"/>
  <text x="770" y="204" font-family="system-ui,sans-serif" font-size="10" fill="#52525b" text-anchor="middle">—</text>
  <rect x="878" y="188" width="24" height="24" rx="5" fill="#27272a50"/>
  <text x="890" y="204" font-family="system-ui,sans-serif" font-size="10" fill="#52525b" text-anchor="middle">—</text>
  <rect x="998" y="188" width="24" height="24" rx="5" fill="#27272a50"/>
  <text x="1010" y="204" font-family="system-ui,sans-serif" font-size="10" fill="#52525b" text-anchor="middle">—</text>

  <!-- users.create -->
  <text x="280" y="238" font-family="system-ui,sans-serif" font-size="11" fill="#d4d4d8">create</text>
  <rect x="518" y="226" width="24" height="24" rx="5" fill="transparent"/>
  <text x="530" y="242" font-family="system-ui,sans-serif" font-size="10" fill="#27272a" text-anchor="middle">—</text>
  <rect x="638" y="226" width="24" height="24" rx="5" fill="transparent"/>
  <text x="650" y="242" font-family="system-ui,sans-serif" font-size="10" fill="#27272a" text-anchor="middle">—</text>
  <rect x="758" y="226" width="24" height="24" rx="5" fill="transparent"/>
  <text x="770" y="242" font-family="system-ui,sans-serif" font-size="10" fill="#27272a" text-anchor="middle">—</text>
  <rect x="878" y="226" width="24" height="24" rx="5" fill="#f59e0b15"/>
  <text x="890" y="243" font-family="system-ui,sans-serif" font-size="14" fill="#f59e0b" text-anchor="middle">✓</text>
  <rect x="998" y="226" width="24" height="24" rx="5" fill="#27272a50"/>
  <text x="1010" y="242" font-family="system-ui,sans-serif" font-size="10" fill="#52525b" text-anchor="middle">—</text>

  <!-- users.delete -->
  <text x="280" y="278" font-family="system-ui,sans-serif" font-size="11" fill="#d4d4d8">delete</text>
  <rect x="518" y="266" width="24" height="24" rx="5" fill="transparent"/>
  <text x="530" y="282" font-family="system-ui,sans-serif" font-size="10" fill="#27272a" text-anchor="middle">—</text>
  <rect x="638" y="266" width="24" height="24" rx="5" fill="transparent"/>
  <text x="650" y="282" font-family="system-ui,sans-serif" font-size="10" fill="#27272a" text-anchor="middle">—</text>
  <rect x="758" y="266" width="24" height="24" rx="5" fill="transparent"/>
  <text x="770" y="282" font-family="system-ui,sans-serif" font-size="10" fill="#27272a" text-anchor="middle">—</text>
  <rect x="878" y="266" width="24" height="24" rx="5" fill="transparent"/>
  <text x="890" y="282" font-family="system-ui,sans-serif" font-size="10" fill="#27272a" text-anchor="middle">—</text>
  <rect x="998" y="266" width="24" height="24" rx="5" fill="#ef444415"/>
  <text x="1010" y="283" font-family="system-ui,sans-serif" font-size="14" fill="#ef4444" text-anchor="middle">✓</text>

  <!-- Resource: POSTS -->
  <text x="260" y="312" font-family="system-ui,sans-serif" font-size="9" fill="#52525b" font-weight="600">POSTS</text>

  <text x="280" y="336" font-family="system-ui,sans-serif" font-size="11" fill="#d4d4d8">read</text>
  <rect x="518" y="324" width="24" height="24" rx="5" fill="#6b728015"/>
  <text x="530" y="341" font-family="system-ui,sans-serif" font-size="14" fill="#6b7280" text-anchor="middle">✓</text>
  <rect x="638" y="324" width="24" height="24" rx="5" fill="#27272a50"/>
  <text x="650" y="340" font-family="system-ui,sans-serif" font-size="10" fill="#52525b" text-anchor="middle">—</text>
  <rect x="758" y="324" width="24" height="24" rx="5" fill="#27272a50"/>
  <text x="770" y="340" font-family="system-ui,sans-serif" font-size="10" fill="#52525b" text-anchor="middle">—</text>
  <rect x="878" y="324" width="24" height="24" rx="5" fill="#27272a50"/>
  <text x="890" y="340" font-family="system-ui,sans-serif" font-size="10" fill="#52525b" text-anchor="middle">—</text>
  <rect x="998" y="324" width="24" height="24" rx="5" fill="#27272a50"/>
  <text x="1010" y="340" font-family="system-ui,sans-serif" font-size="10" fill="#52525b" text-anchor="middle">—</text>

  <text x="280" y="374" font-family="system-ui,sans-serif" font-size="11" fill="#d4d4d8">create</text>
  <rect x="518" y="362" width="24" height="24" rx="5" fill="transparent"/>
  <text x="530" y="378" font-family="system-ui,sans-serif" font-size="10" fill="#27272a" text-anchor="middle">—</text>
  <rect x="638" y="362" width="24" height="24" rx="5" fill="#3b82f615"/>
  <text x="650" y="379" font-family="system-ui,sans-serif" font-size="14" fill="#3b82f6" text-anchor="middle">✓</text>
  <rect x="758" y="362" width="24" height="24" rx="5" fill="#27272a50"/>
  <text x="770" y="378" font-family="system-ui,sans-serif" font-size="10" fill="#52525b" text-anchor="middle">—</text>
  <rect x="878" y="362" width="24" height="24" rx="5" fill="#27272a50"/>
  <text x="890" y="378" font-family="system-ui,sans-serif" font-size="10" fill="#52525b" text-anchor="middle">—</text>
  <rect x="998" y="362" width="24" height="24" rx="5" fill="#27272a50"/>
  <text x="1010" y="378" font-family="system-ui,sans-serif" font-size="10" fill="#52525b" text-anchor="middle">—</text>

  <text x="280" y="412" font-family="system-ui,sans-serif" font-size="11" fill="#d4d4d8">publish</text>
  <rect x="518" y="400" width="24" height="24" rx="5" fill="transparent"/>
  <text x="530" y="416" font-family="system-ui,sans-serif" font-size="10" fill="#27272a" text-anchor="middle">—</text>
  <rect x="638" y="400" width="24" height="24" rx="5" fill="transparent"/>
  <text x="650" y="416" font-family="system-ui,sans-serif" font-size="10" fill="#27272a" text-anchor="middle">—</text>
  <rect x="758" y="400" width="24" height="24" rx="5" fill="#8b5cf615"/>
  <text x="770" y="417" font-family="system-ui,sans-serif" font-size="14" fill="#8b5cf6" text-anchor="middle">✓</text>
  <rect x="878" y="400" width="24" height="24" rx="5" fill="#27272a50"/>
  <text x="890" y="416" font-family="system-ui,sans-serif" font-size="10" fill="#52525b" text-anchor="middle">—</text>
  <rect x="998" y="400" width="24" height="24" rx="5" fill="#27272a50"/>
  <text x="1010" y="416" font-family="system-ui,sans-serif" font-size="10" fill="#52525b" text-anchor="middle">—</text>

  <!-- Resource: SETTINGS -->
  <text x="260" y="450" font-family="system-ui,sans-serif" font-size="9" fill="#52525b" font-weight="600">SETTINGS</text>

  <text x="280" y="474" font-family="system-ui,sans-serif" font-size="11" fill="#d4d4d8">read</text>
  <rect x="878" y="462" width="24" height="24" rx="5" fill="#f59e0b15"/>
  <text x="890" y="479" font-family="system-ui,sans-serif" font-size="14" fill="#f59e0b" text-anchor="middle">✓</text>
  <rect x="998" y="462" width="24" height="24" rx="5" fill="#27272a50"/>
  <text x="1010" y="478" font-family="system-ui,sans-serif" font-size="10" fill="#52525b" text-anchor="middle">—</text>

  <text x="280" y="510" font-family="system-ui,sans-serif" font-size="11" fill="#d4d4d8">update</text>
  <rect x="878" y="498" width="24" height="24" rx="5" fill="#f59e0b15"/>
  <text x="890" y="515" font-family="system-ui,sans-serif" font-size="14" fill="#f59e0b" text-anchor="middle">✓</text>
  <rect x="998" y="498" width="24" height="24" rx="5" fill="#27272a50"/>
  <text x="1010" y="514" font-family="system-ui,sans-serif" font-size="10" fill="#52525b" text-anchor="middle">—</text>

  <!-- Legend at bottom -->
  <text x="260" y="560" font-family="system-ui,sans-serif" font-size="9" fill="#52525b" font-weight="600">LEGEND</text>
  <rect x="260" y="572" width="16" height="16" rx="4" fill="#8b5cf615"/>
  <text x="268" y="584" font-family="system-ui,sans-serif" font-size="12" fill="#8b5cf6" text-anchor="middle">✓</text>
  <text x="284" y="584" font-family="system-ui,sans-serif" font-size="10" fill="#71717a">Direct permission</text>
  <rect x="420" y="572" width="16" height="16" rx="4" fill="#27272a50"/>
  <text x="428" y="584" font-family="system-ui,sans-serif" font-size="10" fill="#52525b" text-anchor="middle">—</text>
  <text x="444" y="584" font-family="system-ui,sans-serif" font-size="10" fill="#71717a">Inherited</text>
  <text x="530" y="584" font-family="system-ui,sans-serif" font-size="10" fill="#27272a">—</text>
  <text x="544" y="584" font-family="system-ui,sans-serif" font-size="10" fill="#71717a">No access</text>
</svg>